<svg width="23" height="9" viewBox="0 0 23 9" fill="none" xmlns="http://www.w3.org/2000/svg">
<path d="M0.620728 4.71249C0.620728 4.47539 0.987067 4.27944 1.46237 4.24843L1.5945 4.24416L18.7122 4.24453L12.5281 1.28245C12.147 1.09995 12.1456 0.803414 12.5251 0.620125C12.8701 0.453498 13.411 0.437822 13.7928 0.573465L13.9022 0.618699L21.7574 4.38037C21.8076 4.40442 21.8512 4.43046 21.8883 4.45795C21.8987 4.46623 21.9094 4.4747 21.9195 4.48333C21.9287 4.49074 21.9371 4.49842 21.945 4.5062C21.956 4.5175 21.9668 4.52919 21.9765 4.54111C21.9845 4.5503 21.9911 4.55924 21.9971 4.56825C22.0043 4.57942 22.0112 4.59133 22.0172 4.60342C22.0217 4.61186 22.0252 4.61998 22.0283 4.62814C22.0326 4.64027 22.0363 4.65283 22.039 4.66553C22.0412 4.67522 22.0426 4.68483 22.0434 4.69444C22.0435 4.70026 22.0438 4.70636 22.0438 4.71249L22.0433 4.73063C22.0426 4.73983 22.0413 4.74901 22.0394 4.75817L22.0438 4.71249C22.0438 4.74205 22.0381 4.77096 22.0272 4.799C22.0247 4.80569 22.0217 4.81257 22.0184 4.81941C22.0114 4.83351 22.0034 4.84709 21.9942 4.8604C21.9897 4.86701 21.9845 4.87408 21.9788 4.88109C21.9675 4.89518 21.9551 4.90861 21.9415 4.9217C21.9352 4.92785 21.9281 4.93429 21.9207 4.94067C21.9085 4.95107 21.896 4.96096 21.8827 4.97059C21.8733 4.97741 21.863 4.98451 21.8522 4.9915L21.8437 4.99689C21.8175 5.01338 21.7891 5.029 21.7586 5.04366L21.7574 5.04409L13.9023 8.80638C13.5212 8.9889 12.9047 8.98829 12.5252 8.80501C12.1802 8.6384 12.1499 8.37818 12.4335 8.19512L12.528 8.14269L18.7096 5.1812L1.5945 5.18083C1.0567 5.18083 0.620728 4.97115 0.620728 4.71249Z" fill="white"/>
</svg>
