<svg width="74" height="88" viewBox="0 0 74 88" fill="none" xmlns="http://www.w3.org/2000/svg">
<path d="M62.0021 28.897H66.2589C70.7227 28.897 73.5815 31.544 73.7042 36.0126C73.8149 40.012 73.786 44.0162 73.7042 48.0155C73.6272 51.3844 71.5818 54.2215 68.7399 54.9097C67.6353 55.1769 66.4394 55.0878 65.2843 55.1239C64.252 55.1528 63.2173 55.1239 62.0093 55.1239V56.4859C62.0093 62.728 62.0285 68.9701 62.0093 75.2122C61.9948 78.1985 60.8061 80.7203 58.7246 82.8235C58.2281 83.3476 57.6254 83.7597 56.9569 84.0323C56.2884 84.305 55.5694 84.4318 54.848 84.4045C52.4151 84.3563 49.9799 84.4045 47.5904 84.4045C46.7121 86.9384 46.1754 87.3137 43.526 87.3137C39.9165 87.3137 36.3238 87.3137 32.7239 87.3137C31.1852 87.3182 29.7077 86.7113 28.6165 85.6264C27.5253 84.5415 26.9098 83.0676 26.9053 81.5289C26.9009 79.9902 27.5078 78.5127 28.5927 77.4215C29.6776 76.3303 31.1515 75.7148 32.6902 75.7103C36.4129 75.6886 40.1331 75.7103 43.8557 75.7103C45.8145 75.7103 46.7024 76.3913 47.0875 78.3404C47.2872 79.3463 47.369 80.3786 47.5182 81.5168C50.1267 81.5168 52.7159 81.5433 55.3028 81.4904C55.7393 81.4314 56.1395 81.2159 56.4289 80.884C57.9762 79.1995 59.124 77.2744 59.1289 74.909C59.1545 63.0649 59.1545 51.2216 59.1289 39.3791C59.1289 39.1024 59.1048 38.8257 59.0904 38.5465C53.1611 37.1027 48.7575 33.4595 45.0733 28.8561C44.2889 27.8767 43.8966 26.5412 43.4851 25.3163C43.1386 24.2864 42.6333 23.5862 41.4903 23.6078C40.4507 23.6295 39.6109 24.1493 39.5652 25.2081C39.2764 30.9978 35.2987 33.5629 30.628 35.4616C25.9572 37.3602 20.9929 38.058 15.9708 38.2987C15.7759 38.2987 15.581 38.342 15.2489 38.3805C15.2273 38.816 15.1912 39.2395 15.1912 39.6631C15.1912 44.1028 15.1912 48.5449 15.1912 52.9847C15.1912 54.9097 14.9505 55.1335 13.0664 55.1504C11.706 55.1504 10.3424 55.1504 8.97555 55.1504C4.14358 55.1287 0.570136 51.5649 0.553292 46.7546C0.553292 43.5132 0.538854 40.2719 0.553292 37.0329C0.548025 34.9004 1.38394 32.8519 2.87963 31.3319C4.37532 29.8118 6.41011 28.943 8.5424 28.9139C9.73355 28.8826 10.9295 28.9139 12.3204 28.9139C12.3204 27.5495 12.3035 26.2885 12.3204 25.0252C12.4407 17.4548 15.3043 11.09 20.9833 6.1088C33.8332 -5.15055 53.8974 -0.203071 60.1588 15.6789C61.4065 18.7618 62.0337 22.0605 62.0045 25.3861C61.99 26.5075 62.0021 27.6216 62.0021 28.897ZM59.0615 28.4807C59.769 19.4857 56.6936 12.1006 48.9331 7.15798C41.2953 2.29233 33.2918 2.23456 25.6083 7.00878C17.5109 12.0381 14.4741 19.6927 15.2946 29.2604C15.5762 28.755 15.7446 28.4157 15.9468 28.0981C17.9729 24.9 19.8282 21.5721 22.0854 18.5449C24.5904 15.188 27.8895 12.683 32.0549 11.6531C36.6246 10.4882 41.4514 10.8693 45.7816 12.7369C50.1119 14.6045 53.7019 17.8534 55.991 21.9763C57.1749 24.0723 58.0605 26.3367 59.0615 28.4807V28.4807Z" fill="#81AF02"/>
<path d="M41.3819 31.3733C43.3069 33.0866 45.078 34.9828 47.1571 36.405C49.6766 38.1352 52.4511 39.5068 55.151 40.9506C55.832 41.314 56.2122 41.6244 56.1954 42.4498C56.1039 46.7259 56.2796 51.0212 55.9548 55.2805C55.2136 65.1345 46.055 74.0501 35.4718 72.8661C27.7402 72.0095 22.6098 67.4951 19.5634 60.4854C18.4468 57.9178 18.1196 55.177 18.1196 52.3952C18.1196 49.356 18.1894 46.312 18.0811 43.2751C18.0354 41.9757 18.5166 41.699 19.6958 41.6099C24.2197 41.2731 28.6474 40.4332 32.8345 38.5924C36.278 37.0812 39.2161 34.9636 41.1388 31.6332C41.207 31.5354 41.2889 31.4479 41.3819 31.3733V31.3733Z" fill="#81AF02"/>
</svg>
