<svg width="103" height="87" viewBox="0 0 103 87" fill="none" xmlns="http://www.w3.org/2000/svg">
<path d="M55.2082 73.3637C53.7927 71.1451 52.4099 69.0169 51.0873 66.8535C50.9492 66.6301 51.0396 66.1231 51.2102 65.8797C52.1464 64.552 53.1829 63.2946 54.0889 61.9494C54.3951 61.5001 54.4277 60.8652 54.5733 60.313C54.5934 60.2428 54.5356 60.1524 54.513 60.0621C53.3937 55.9285 53.4062 55.8909 49.225 54.5657C48.1006 54.2093 47.6037 53.7952 47.812 52.5077C48.1458 50.4547 48.2839 48.3666 48.457 46.2911C48.5248 45.4955 48.8385 45.119 49.6642 45.0362C50.9191 44.9157 52.1313 44.6346 53.3711 44.5066C54.513 44.3862 55.0727 43.7111 55.7503 42.8301C57.2687 40.86 57.334 39.0078 56.4029 36.754C55.2233 33.903 55.3739 33.8427 58.1321 32.4172C59.2037 31.8625 60.2428 31.2276 61.3571 30.7708C61.8662 30.5993 62.4213 30.6271 62.9106 30.8486C63.6793 31.1808 64.3752 31.6609 64.9586 32.2616C66.8435 34.3798 68.9215 33.5165 70.982 32.7635C71.3133 32.6406 71.5869 32.2239 71.7726 31.8801C72.5104 30.5273 73.1604 29.1194 73.941 27.7992C74.0711 27.6181 74.2411 27.4692 74.4377 27.3639C74.6344 27.2587 74.8525 27.1998 75.0754 27.1919C77.3567 27.4128 79.6331 27.6938 81.8944 28.0603C82.2684 28.1205 82.6599 28.6375 82.8657 29.0366C83.0522 29.4583 83.1332 29.9192 83.1016 30.3793C83.0162 33.0622 84.3063 34.8416 86.7006 35.8681C87.1611 36.0731 87.6771 36.1182 88.1663 35.9961C89.7851 35.459 91.3787 34.8391 92.9523 34.184C93.5898 33.918 93.9337 34.0686 94.3001 34.6057C95.6353 36.5708 96.9805 38.5284 98.3734 40.4509C98.8226 41.0733 98.7775 41.5401 98.3333 42.1149C97.7736 42.8377 97.3795 43.7136 96.7421 44.351C94.9626 46.1254 95.6101 48.1809 95.9615 50.1937C96.0142 50.4924 96.4811 50.7936 96.8224 50.9467C98.401 51.6996 100.022 52.3596 101.591 53.1477C101.774 53.2672 101.926 53.429 102.033 53.6194C102.141 53.8099 102.201 54.0234 102.208 54.242C101.885 56.6363 101.43 59.0105 101.086 61.4023C100.966 62.2355 100.396 62.356 99.7889 62.4865C98.1625 62.8404 96.5262 63.1114 94.9099 63.5431C94.358 63.7366 93.8794 64.096 93.5396 64.5721C92.2446 66.2862 92.0062 68.1209 92.9147 70.1462C93.3614 71.1501 93.9562 72.4276 93.6676 73.3161C93.3991 74.1468 92.0564 74.6362 91.1729 75.2586C90.2417 75.9606 89.2714 76.6091 88.2666 77.2011C88.0272 77.3153 87.767 77.3792 87.5019 77.3886C87.2368 77.3981 86.9726 77.3531 86.7257 77.2563C85.3026 76.5687 83.9649 75.7304 82.572 74.9599C80.9382 74.0514 77.9491 75.0277 77.1886 76.7168C76.6566 77.8913 76.1647 79.091 75.5523 80.2304C75.3741 80.5617 74.7993 80.9281 74.468 80.888C72.1122 80.6102 69.7648 80.263 67.4257 79.8464C67.2218 79.7724 67.0386 79.6506 66.8914 79.4912C66.7443 79.3318 66.6375 79.1395 66.5799 78.9304C66.3568 77.5314 66.221 76.1198 66.1733 74.7039C66.1432 73.7377 65.6714 73.1805 65.054 72.4928C63.3875 70.6381 61.6834 70.3621 59.5325 71.6044C58.2325 72.3322 56.7593 72.7413 55.2082 73.3637ZM74.9926 65.9248C75.9388 65.8019 76.9 65.7492 77.8311 65.5459C85.1395 63.9547 89.2957 56.5685 86.6654 49.8825C84.5347 44.464 78.323 41.1712 72.6109 42.4311C66.8384 43.706 62.745 48.2487 62.6296 53.5367C62.4865 60.3858 67.9327 65.8169 74.9926 65.9248Z" fill="#81AF02"/>
<path d="M37.985 41.003C39.777 42.6042 41.5564 44.1728 43.2906 45.7891C43.4839 45.9698 43.5291 46.4792 43.4312 46.7628C43.097 47.8346 42.6774 48.8778 42.1763 49.8824C41.5589 51.0344 41.7547 51.9957 42.224 53.1627C42.7812 54.5481 43.5793 55.4215 45.0475 55.5168C47.891 55.6975 49.1484 57.1256 49.4897 59.9967C49.8812 63.2594 50.1649 63.3297 47.2661 64.8606C45.482 65.7773 44.0185 67.2144 43.0697 68.9816C42.9713 69.184 42.9167 69.4047 42.9094 69.6296C42.902 69.8545 42.9421 70.0784 43.0271 70.2867C43.7072 71.5742 44.533 72.7789 45.2307 74.0513C45.3062 74.2377 45.3372 74.4391 45.3211 74.6396C45.305 74.84 45.2422 75.0339 45.1378 75.2058C43.8829 76.7593 42.5226 78.2351 41.2552 79.7836C40.8085 80.3282 40.4045 80.2855 39.8649 80.0346C38.861 79.5326 37.8018 79.1285 36.823 78.5814C35.9421 78.0795 35.1841 78.1673 34.2329 78.4735C32.328 79.0859 31.2865 80.0195 30.9929 82.2105C30.521 85.7367 30.3102 85.7016 26.7263 86.1006C25.8153 86.2035 24.9042 86.3516 24.0082 86.5298C23.1122 86.708 22.6379 86.5474 22.3643 85.5886C21.8961 83.948 21.3449 82.3321 20.713 80.7473C20.4902 80.3015 20.1006 79.9615 19.6287 79.8012C18.8346 79.5491 18.0095 79.408 17.1767 79.382C16.6142 79.3613 16.0576 79.5024 15.573 79.7886C14.2428 80.6444 12.9804 81.6057 11.5775 82.6096C9.71022 81.0008 7.84045 79.4197 6.02591 77.7783C5.83266 77.6051 5.85272 77.0254 5.98323 76.6991C6.48518 75.507 7.10761 74.3726 7.5669 73.1679C7.72466 72.6547 7.73335 72.1072 7.59199 71.5893C7.09004 69.466 5.50137 68.4722 3.51365 68.1158C1.12437 67.6841 0.0727827 66.3866 0.250975 63.9446C0.326267 62.9206 0 61.874 0 60.8375C0.0157379 60.621 0.0800937 60.4109 0.188292 60.2227C0.296491 60.0346 0.445743 59.8733 0.624925 59.7508C1.76686 59.156 3.00919 58.7469 4.13857 58.1471C4.68411 57.817 5.14753 57.3673 5.49384 56.8319C6.68095 55.1354 6.49773 53.5166 5.26293 51.8526C4.55518 50.9014 3.62658 49.6842 3.72948 48.6803C3.83238 47.6764 5.08473 46.7779 5.84769 45.8468C6.61066 44.9157 7.38367 44.09 8.08389 43.1513C8.52811 42.5615 8.9347 42.5264 9.56213 42.8426C10.9375 43.5353 12.3228 44.2079 13.7559 44.7801C14.1725 44.9458 14.7724 44.8504 15.2241 44.6923C17.631 43.854 18.3839 41.8086 18.7378 39.5724C18.9687 38.1469 19.4907 37.409 21.1245 37.4366C22.9441 37.4692 24.7762 37.1505 26.5908 36.8995C27.3035 36.7991 27.5696 37.0727 27.7678 37.6525C28.2321 39.0328 28.6638 40.4307 29.2461 41.7634C29.52 42.2765 29.9546 42.6856 30.4834 42.9279C32.451 43.8766 34.2982 43.6683 36.0048 42.2127C36.5695 41.7509 37.2747 41.4372 37.985 41.003ZM13.4824 61.229C13.5602 67.669 18.7327 72.671 25.253 72.6107C30.9954 72.558 35.656 67.7192 35.543 61.9267C35.42 55.6524 30.1722 50.5224 23.928 50.5626C22.5395 50.5694 21.1661 50.8515 19.8874 51.3927C18.6087 51.9339 17.4501 52.7234 16.4786 53.7154C15.5072 54.7074 14.7421 55.8823 14.2278 57.1721C13.7135 58.4618 13.4601 59.8407 13.4824 61.229V61.229Z" fill="#81AF02"/>
<path d="M26.0524 31.0042C23.2641 31.082 23.2515 31.087 22.1346 28.5095C21.6327 27.3299 20.5962 25.9847 20.8472 24.9758C21.0982 23.9669 22.6416 23.2616 23.643 22.466C25.0485 21.3341 25.1238 18.8696 23.771 17.6298L23.6782 17.5444C22.7872 16.6836 21.4194 15.9507 21.1458 14.9268C20.8948 13.9605 21.7783 12.6831 22.1999 11.5562C23.3067 8.58966 23.3594 8.37633 26.4062 9.04643C28.6324 9.53081 29.6689 8.34622 30.6277 6.91566C30.9916 6.36602 30.8209 5.38973 30.7356 4.62677C30.4695 2.26259 30.4394 2.26509 32.6053 1.41428C33.6519 1.00519 34.716 0.63375 35.74 0.174466C36.3749 -0.111645 36.8217 -0.0765017 37.2458 0.510779C37.5897 0.977592 38.1017 1.33649 38.3878 1.83091C39.344 3.47981 40.8724 3.7609 42.5515 3.63291C42.9868 3.56567 43.3885 3.35867 43.6959 3.04312C44.3817 2.37255 45.0168 1.65194 45.5958 0.887241C46.0977 0.222158 46.6323 0.048985 47.4204 0.274862C48.7003 0.641285 50.018 0.879711 51.2829 1.27876C51.484 1.36818 51.663 1.50059 51.8074 1.66667C51.9518 1.83274 52.058 2.02844 52.1186 2.24C52.2973 3.09873 52.369 3.97629 52.3319 4.85264C52.2541 6.5166 53.125 7.80159 53.9256 9.11921C54.0812 9.37018 54.6183 9.51325 54.9772 9.50572C56.0188 9.48564 57.0603 9.39528 58.0943 9.27481C58.8472 9.18446 59.3191 9.3727 59.6002 10.1608C60.1172 11.5662 60.727 12.9391 61.357 14.3044C61.623 14.8916 61.5728 15.2806 61.0232 15.6697C60.1627 16.2589 59.3434 16.9063 58.5711 17.6072C58.2179 17.9783 57.9694 18.4364 57.8509 18.9348C57.3489 20.7996 57.7881 22.1523 59.575 23.3118C61.7962 24.7549 61.6833 24.9407 60.8827 27.3826C60.5087 28.5296 60.4234 30.1208 59.6278 30.6754C58.8749 31.1975 57.369 30.6252 56.1794 30.5374C56.1386 30.5424 56.0972 30.5424 56.0564 30.5374C54.0285 29.7569 52.8515 30.7884 52.0207 32.4674C51.7969 32.8898 51.6846 33.3623 51.6945 33.8402C51.7555 34.7972 51.9085 35.7461 52.1513 36.6737C52.4022 37.635 52.1513 38.1118 51.2126 38.4306C49.7996 38.9325 48.4167 39.5148 47.0489 40.1246C46.3437 40.4384 45.8768 40.3154 45.4602 39.6829C45.139 39.1985 44.6571 38.807 44.3936 38.2975C43.6683 36.8971 42.5012 36.5156 41.0732 36.7917C40.4457 36.8939 39.8494 37.1367 39.3289 37.502C38.2472 38.3427 37.3713 39.841 36.2118 40.0744C35.0523 40.3078 33.6544 39.3341 32.3694 38.8622C30.6126 38.2197 30.6427 38.2097 30.7657 36.3123C30.8661 34.7538 31.1422 33.2053 29.694 31.9328C29.0164 31.3355 28.4693 30.9013 27.5532 31.0168C27.0531 31.0427 26.552 31.0385 26.0524 31.0042V31.0042ZM40.9201 29.3528C46.2433 29.4206 50.7082 25.2218 50.7784 20.0868C50.8437 15.2028 46.6524 11.1069 41.4924 11.0141C36.2219 10.9187 31.6316 15.1978 31.5789 20.2524C31.5362 25.2669 35.6622 29.2901 40.9201 29.3553V29.3528Z" fill="#81AF02"/>
</svg>
