<svg width="92" height="88" viewBox="0 0 92 88" fill="none" xmlns="http://www.w3.org/2000/svg">
<path d="M25.248 52.1372C27.7 57.2231 31.7623 59.5725 37.077 59.8042C43.0869 60.0682 47.7797 57.8273 50.5691 52.1959C50.8057 52.2279 51.0399 52.2759 51.2701 52.3396C52.0004 52.5889 52.7366 52.8587 53.5608 53.1608C52.5078 55.1935 53.291 56.8096 54.4965 58.4052C55.8691 60.2237 55.4556 61.1916 53.2353 61.6667C52.5683 61.7812 51.909 61.937 51.2613 62.1331C49.9326 62.6053 48.95 63.5204 48.8474 64.9605C48.7301 66.6001 48.6421 68.2925 48.9324 69.891C49.2873 71.8444 50.9709 72.4105 52.7454 72.7214C53.6253 72.8739 54.8396 72.6217 55.042 73.9738C55.1256 74.5059 55.0659 75.0506 54.869 75.5518C54.605 76.1678 54.0624 76.6576 53.772 77.2647C53.4816 77.8719 53.0857 78.6403 53.1238 79.3179C53.291 82.0867 55.4702 83.5092 57.409 84.8907C58.8755 85.9554 60.5356 85.2603 61.967 84.1633C63.6916 82.8463 65.1288 82.9431 65.4867 84.2894C65.6471 85.0735 65.7655 85.8656 65.8415 86.6623H0.0647142C0.0441827 86.1783 0.000195423 85.665 0.000195423 85.1547C0.000195423 81.2029 0.000195423 77.251 0.000195423 73.2992C-0.0167858 69.7203 1.07331 66.2236 3.12114 63.2884C5.16897 60.3532 8.07435 58.123 11.4391 56.9034C15.9795 55.2375 20.5961 53.7357 25.248 52.1372Z" fill="#81AF02"/>
<path d="M24.2466 22.3285L20.2547 21.3401C19.2722 15.3068 23.1497 7.1382 30.673 3.85318L32.6616 12.0364L32.9226 12.0012C32.9226 9.50812 32.9226 7.01501 32.9226 4.51605C32.9226 3.59213 32.7584 2.58902 33.0605 1.76483C33.3098 1.0873 34.0959 0.198582 34.7147 0.139921C36.8522 -0.0204612 38.9978 -0.0429934 41.1381 0.072462C42.5431 0.119391 43.0065 1.08143 43.0006 2.37198C43.0006 5.58075 43.0006 8.79245 43.2558 12.0511L45.2004 3.9705C50.7028 5.79193 56.5396 13.0806 55.7946 21.2756L51.6062 22.352L51.6561 22.6042C53.4453 22.6042 55.2315 22.6394 57.0177 22.6042C58.3229 22.569 58.8392 23.141 58.8714 24.4315C58.9711 28.4967 58.9975 28.4938 55.0056 28.4938H19.6241C17.2777 28.4938 16.9844 28.2005 16.9844 25.7837C16.9844 25.2939 16.9844 24.807 16.9844 24.3171C17.0137 23.2055 17.571 22.6042 18.7031 22.6072C19.63 22.6072 20.5539 22.6072 21.4808 22.6072H24.1968L24.2466 22.3285Z" fill="#81AF02"/>
<path d="M87.1783 55.12C86.5917 56.0293 86.137 56.8036 85.6237 57.5457C84.3889 59.3319 84.4505 61.3 85.8672 62.9396C86.2063 63.2773 86.6346 63.5113 87.102 63.6142C88.0875 63.8664 89.1552 63.884 90.0908 64.236C92.2759 65.0572 91.0001 66.996 91.264 68.4273C91.4576 69.4246 90.9531 70.1256 89.9207 70.3309C89.2549 70.4658 88.5803 70.5655 87.9086 70.6477C86.5916 70.806 85.832 71.466 85.2014 72.7008C84.3215 74.4606 84.6382 75.7688 85.7528 77.2324C86.3159 77.9744 87.0199 79.3354 86.7119 79.8721C86.0226 81.0747 84.7878 81.9957 83.6615 82.8873C83.3888 83.1014 82.632 82.8463 82.1744 82.6409C81.6524 82.4063 81.2154 81.9839 80.7373 81.6496C79.0185 80.4382 76.7982 80.4763 75.4138 82.0631C74.7509 82.8257 74.572 84.0781 74.3549 85.1458C73.9238 87.2546 73.8856 87.3426 71.7152 87.3602C67.8817 87.3925 68.3832 87.4776 67.6939 84.1573C67.0457 81.0219 64.1156 79.8516 61.5345 81.6701C61.1385 81.9487 60.7396 82.2303 60.3319 82.4972C60.1115 82.6841 59.8563 82.8256 59.5811 82.9137C57.5045 83.2422 56.8533 81.3416 55.686 80.3062C54.8794 79.5935 55.2754 78.7165 55.8972 77.9598C56.2081 77.5873 56.4662 77.1678 56.7448 76.7689C58.6308 74.0881 57.2552 71.0319 53.9731 70.6095C53.4451 70.5421 52.7999 70.5831 52.4215 70.3016C51.8349 69.8733 50.996 69.2163 50.9843 68.6414C50.8963 64.453 50.3566 64.4061 54.5186 63.7374C57.2229 63.3033 58.4489 60.1561 56.9413 57.9328C54.765 54.727 54.8119 54.4748 57.8447 51.9465C58.5751 51.3364 59.2819 51.178 60.0739 51.791C60.4045 51.9958 60.7192 52.2253 61.0154 52.4773C62.7371 54.2929 64.535 53.7708 66.4357 52.7853C67.7145 52.1166 67.5766 50.8348 67.8289 49.7496C68.0576 48.7729 67.864 47.4031 69.0871 47.2213C70.5273 46.9925 72.0525 47.1861 73.5219 47.3474C73.8152 47.3797 74.1085 48.0778 74.2405 48.5206C74.4011 49.1311 74.5158 49.7527 74.5837 50.3802C74.6687 51.0322 74.9225 51.6507 75.3201 52.1745C75.7176 52.6982 76.2451 53.109 76.8502 53.3663C77.4553 53.6235 78.1171 53.7182 78.7701 53.641C79.4231 53.5638 80.0445 53.3173 80.573 52.9261C83.5061 50.873 83.1893 50.653 85.9083 53.4423C86.3649 53.9756 86.789 54.5358 87.1783 55.12V55.12ZM62.5846 67.2101C62.5704 69.4927 63.4601 71.6882 65.0593 73.3171C66.6585 74.946 68.8372 75.8759 71.1198 75.9037C75.7687 75.9389 79.7957 71.9441 79.8075 67.2776C79.7914 64.9931 78.878 62.8065 77.2643 61.1895C75.6505 59.5724 73.4658 58.6546 71.1813 58.6338C70.0512 58.6225 68.9302 58.8365 67.8838 59.2633C66.8373 59.6901 65.8864 60.3211 65.0866 61.1196C64.2868 61.918 63.6541 62.8679 63.2255 63.9136C62.7969 64.9593 62.581 66.08 62.5904 67.2101H62.5846Z" fill="#81AF02"/>
<path d="M18.4331 31.7495H20.4364C21.4014 32.7643 22.2637 33.5621 22.9852 34.4714C23.3247 34.987 23.5635 35.5622 23.6891 36.1667C24.9944 40.7188 27.2088 44.6872 30.9808 47.6731C35.6179 51.3482 41.1673 51.1399 45.5845 47.1686C49.022 44.0771 51.1338 40.2172 52.3745 35.8088C52.5505 35.1812 53.0989 34.6356 53.5154 34.1018C53.7442 33.8085 54.2194 33.6061 54.3074 33.2864C54.8001 31.5266 56.0672 31.509 57.915 31.8873C57.1788 33.2101 56.5101 34.4303 55.8208 35.6387C55.3779 36.4072 54.7415 37.1052 54.4746 37.9294C53.1987 41.8363 51.2277 45.3061 48.3151 48.2127C41.8624 54.6303 33.4269 54.469 27.1971 47.8138C24.466 44.8909 22.457 41.3691 21.331 37.5305C21.1462 36.9175 20.6798 36.3837 20.3337 35.8235C19.5623 34.5769 18.7821 33.3363 18.0078 32.0956L18.4331 31.7495Z" fill="#81AF02"/>
</svg>
