<svg width="105" height="105" viewBox="0 0 105 105" fill="none" xmlns="http://www.w3.org/2000/svg">
<path d="M76.9359 38.8527C76.8383 39.2424 76.7179 39.626 76.5752 40.0015C76.4149 40.3055 76.2385 40.6008 76.0468 40.8861C75.3575 42.0601 74.1949 43.1951 74.0892 44.422C73.9881 45.6053 74.9255 46.9011 75.4999 48.0981C75.7218 48.4698 76.078 48.742 76.4948 48.8586C77.747 49.2033 79.0221 49.4652 80.295 49.7156C81.5012 49.9454 82.071 50.6737 82.071 51.8776C82.071 53.9018 82.071 55.9283 82.071 57.9547C82.071 59.0897 81.4897 59.7284 80.4213 59.9697C79.353 60.2109 78.257 60.4499 77.1657 60.6796C76.8269 60.7404 76.4923 60.8225 76.1639 60.9255C75.2449 61.254 73.8319 65.4218 74.3489 66.2375C75.0037 67.2714 75.686 68.2846 76.3317 69.3231C77.1013 70.5615 77.0209 71.2622 76.0192 72.2801C74.7019 73.6127 73.3785 74.9376 72.049 76.2549C70.937 77.3554 70.2638 77.4036 68.9059 76.5581C67.9065 75.924 66.8887 75.3129 65.9191 74.6305C65.3401 74.2215 64.8392 74.1916 64.2464 74.5639C63.8707 74.8305 63.4471 75.0224 62.9988 75.1291C60.9977 75.4461 60.4026 76.7511 60.0924 78.5938C59.4031 82.6743 59.3227 82.3067 55.5409 82.309C54.1624 82.309 52.7839 82.309 51.4053 82.309C50.3301 82.309 49.6821 81.7966 49.4501 80.7512C49.1859 79.5565 48.8757 78.3709 48.6712 77.167C48.5288 76.3238 48.2117 75.7885 47.3111 75.5771C46.6358 75.4359 45.9904 75.1777 45.4041 74.8143C44.338 74.1112 43.4718 74.3042 42.5252 75.044C41.6908 75.6516 40.8233 76.2123 39.9267 76.7236C38.9594 77.3163 38.0495 77.2589 37.2247 76.4272C35.8232 75.0188 34.3987 73.631 33.0133 72.2066C32.069 71.2347 32.0276 70.5178 32.772 69.33C33.4429 68.2639 34.1919 67.2392 34.7916 66.1341C34.9837 65.6784 35.0129 65.1705 34.8743 64.6958C34.6859 64.0065 34.185 63.3862 34.0472 62.69C33.7577 61.3321 32.9811 60.7187 31.6301 60.5716C30.6097 60.4188 29.5993 60.2056 28.6042 59.9329C27.5726 59.6894 27.0557 59.03 27.0626 57.957C27.0748 55.8938 27.0794 53.8298 27.0763 51.7651C27.0763 50.6461 27.6163 49.9799 28.7122 49.7478C30.0218 49.4698 31.3429 49.2331 32.6181 48.8586C33.0408 48.7346 33.4429 48.2911 33.6911 47.8914C33.9897 47.4158 34.0242 46.7747 34.3298 46.306C35.2695 44.8724 35.173 43.6041 34.0265 42.3129C33.4498 41.6649 33.0431 40.8585 32.5974 40.1026C32.069 39.2065 32.1379 38.361 32.9053 37.6028C34.3711 36.1508 35.8255 34.6849 37.2913 33.2375C38.0794 32.4586 38.9525 32.369 39.8899 32.9686C41.0157 33.6901 42.1139 34.4598 43.2857 35.1031C43.6717 35.3145 44.2576 35.2892 44.7217 35.2019C45.1858 35.1146 45.6085 34.7056 46.0818 34.6206C48.0371 34.2714 48.8596 33.0628 48.9768 31.1742C49.025 30.4206 49.2962 29.6831 49.4616 28.9364C49.6913 27.8887 50.3806 27.3695 51.4214 27.3603C53.4892 27.3396 55.557 27.3603 57.6248 27.3603C58.6863 27.3603 59.3687 27.8703 59.6145 28.8996C59.9247 30.2001 60.1292 31.5304 60.5336 32.8055C60.6852 33.2926 61.1723 33.759 61.6226 34.0508C62.1556 34.3954 62.8886 34.4414 63.4078 34.7975C64.6899 35.6775 65.7628 35.4362 66.8909 34.508C67.6239 33.906 68.4832 33.4534 69.3011 32.9594C70.2431 32.3874 71.0955 32.4999 71.8836 33.3041C73.2621 34.7263 74.705 36.1048 76.0766 37.5431C76.458 37.9153 76.6809 38.4483 76.9359 38.8527ZM39.2902 44.3026C39.0995 44.7621 38.9134 45.2032 38.7158 45.6489C38.1782 46.8666 37.4108 48.0384 37.142 49.3136C36.7261 51.2803 35.6532 52.2177 33.7301 52.3555C33.575 52.3757 33.4215 52.4064 33.2706 52.4474C30.6445 53.0333 30.6674 53.0333 30.6582 55.6916C30.6582 56.4245 30.8306 56.8082 31.6209 56.9208C32.6388 57.0679 33.6313 57.4033 34.6491 57.5549C35.8645 57.7364 36.4872 58.4073 36.8617 59.5538C37.3621 61.0738 37.9765 62.5538 38.6997 63.9812C39.2764 65.1048 39.3155 66.0605 38.5458 67.0623C38.2678 67.4253 38.0564 67.8366 37.8106 68.2249C36.3332 70.5339 36.3562 70.5109 38.3298 72.4225C38.8629 72.9372 39.2489 72.9257 39.8049 72.5397C40.6504 71.9492 41.5602 71.4506 42.3989 70.851C43.4213 70.1181 44.3564 70.1112 45.473 70.7453C46.6585 71.4208 47.9268 72.0733 49.2433 72.3651C50.978 72.7465 51.8304 73.6678 52.0004 75.3519C52.0367 75.6175 52.0889 75.8806 52.1566 76.14C52.7356 78.7937 52.7356 78.7707 55.5134 78.7156C56.1728 78.7018 56.4898 78.4858 56.6139 77.8517C56.8437 76.6891 57.124 75.538 57.3606 74.3778C57.5467 73.4587 58.0959 72.9716 58.9689 72.65C60.6485 72.0388 62.3073 71.3564 63.9248 70.5937C64.8438 70.1525 65.6479 70.1135 66.5026 70.6924C67.4814 71.3564 68.4809 71.9952 69.4895 72.6132C69.7192 72.7557 70.1673 72.9188 70.2868 72.8154C71.0613 72.1358 71.7933 71.4091 72.4786 70.6396C72.5912 70.5132 72.4786 70.0675 72.3339 69.8423C71.7434 68.8613 71.1346 67.8894 70.4821 66.9451C69.8295 66.0008 69.8226 65.1071 70.3832 64.0662C71.0495 62.8279 71.7089 61.5389 72.0467 60.1857C72.4648 58.5084 73.2782 57.5343 75.0335 57.4515C75.2987 57.4166 75.5607 57.3605 75.817 57.2838C78.5902 56.6773 78.6154 56.675 78.3903 53.8375C78.3469 53.6275 78.2552 53.4305 78.1224 53.2622C77.9896 53.0939 77.8193 52.9589 77.6252 52.8679C76.5239 52.5478 75.4036 52.2977 74.2707 52.1189C73.2001 51.9305 72.6464 51.317 72.3109 50.2969C71.8514 48.8885 71.3919 47.4433 70.6498 46.1728C69.8272 44.7529 69.7514 43.5512 70.8221 42.2968C71.0055 42.0522 71.1713 41.795 71.3184 41.5271C72.8187 39.1698 72.8072 39.1836 70.7325 37.249C70.273 36.8309 69.9467 36.7665 69.4458 37.1112C68.4992 37.7591 67.5044 38.3358 66.5647 38.9883C65.6732 39.6063 64.8231 39.5787 63.8788 39.094C62.73 38.5012 61.5813 37.7499 60.3383 37.5155C58.1165 37.0951 57.1401 35.8314 56.9884 33.7153C56.9803 33.6375 56.9649 33.5606 56.9425 33.4856C56.2532 30.4114 56.8827 31.0295 53.7764 30.9583C52.9768 30.9376 52.5909 31.188 52.4645 32.0014C52.2899 33.095 52.005 34.168 51.7936 35.257C51.6144 36.2358 51.0469 36.7895 50.1141 37.0721C49.1284 37.3708 48.1037 37.6212 47.1985 38.0899C43.3385 40.0865 44.2438 40.0543 40.2782 37.4811C39.2833 36.8331 38.7181 36.8263 37.9071 37.7292C36.4366 39.3605 36.3792 39.3053 37.5625 41.148C37.976 41.789 38.4034 42.4254 38.7824 43.0871C38.9764 43.4804 39.1452 43.8856 39.2879 44.3003L39.2902 44.3026Z" fill="#81AF02"/>
<path d="M89.2864 92.5491C86.1847 94.548 83.0968 96.8203 79.7607 98.6377C61.6099 108.517 38.0299 105.473 22.8958 91.4141C21.8183 90.4147 21.6459 89.3716 22.4156 88.5215C23.1853 87.6714 24.1526 87.6783 25.1451 88.5743C28.0123 91.165 31.174 93.4098 34.5652 95.2626C51.3581 104.453 72.8955 101.969 87.1795 89.1786C87.6007 88.7948 88.063 88.4589 88.5581 88.1768C89.4242 87.699 90.2307 87.8115 90.9475 88.5514C91.816 89.452 92.7167 90.3228 93.7598 91.3613C95.0809 86.456 96.3629 81.7 97.7116 76.7051L82.8509 80.1331C83.5609 80.8844 84.1284 81.4771 84.689 82.0791C85.0972 82.4823 85.4808 82.9096 85.8377 83.3588C86.4053 84.14 86.3938 84.9671 85.6953 85.6564C84.9968 86.3457 84.0158 86.4721 83.3035 85.7828C81.4402 83.9769 79.6113 82.125 77.9042 80.1698C76.937 79.0601 77.6262 77.6586 79.2345 77.2749C82.2811 76.5466 85.3369 75.8596 88.3904 75.1542C92.0366 74.3133 95.6828 73.454 99.3337 72.6269C101.333 72.1674 102.355 73.153 101.84 75.1221C100.08 81.8463 98.2829 88.5598 96.4479 95.2626C95.9884 96.9237 94.4398 97.25 93.1509 96.0621C91.862 94.8743 90.4926 93.6497 89.2864 92.5491Z" fill="#81AF02"/>
<path d="M16.3053 80.5651L20.5972 66.4948C19.1727 66.8302 18.0055 67.1243 16.8269 67.377C15.5425 67.6527 14.6718 67.1932 14.38 66.1363C14.0882 65.0795 14.6626 64.2569 15.9607 63.9146C18.1388 63.3425 20.3261 62.7865 22.5203 62.2787C24.3354 61.8583 25.4313 62.9519 24.9006 64.7256C22.894 71.4208 20.8522 78.1044 18.7752 84.7765C18.2491 86.4698 16.7626 86.7984 15.4897 85.5324C10.5882 80.6539 5.69975 75.7593 0.824304 70.8487C-0.577214 69.4357 -0.149849 67.9767 1.7893 67.4391C3.07824 67.0807 4.37407 66.7498 5.69517 66.4925C6.66934 66.3087 6.97949 65.9525 6.79339 64.8842C5.15292 55.5399 6.10413 46.4255 9.76186 37.6878C15.6919 23.5325 26.0126 13.9884 40.5493 9.03712C40.8722 8.91979 41.2041 8.82912 41.5418 8.76601C42.5712 8.59139 43.265 9.03942 43.5683 10.0113C43.8578 10.9464 43.4787 11.6655 42.6263 12.0952C42.1405 12.3176 41.639 12.5042 41.126 12.6535C22.0562 19.0499 9.18976 37.3271 9.69982 57.4423C9.76875 60.142 10.2765 62.8278 10.589 65.5206C10.6372 65.9365 10.7498 66.3477 10.782 66.7636C10.8991 68.2616 10.4144 68.9647 8.96231 69.3621C7.86177 69.6608 6.74974 69.9158 5.79395 70.1548L16.3053 80.5651Z" fill="#81AF02"/>
<path d="M67.85 4.35923L53.1456 8.27888L63.5444 19.4474C63.8592 18.379 64.1073 17.5197 64.3623 16.665C64.487 16.1837 64.6405 15.7103 64.8219 15.2474C64.9798 14.8304 65.2936 14.4912 65.697 14.3012C66.1004 14.1113 66.5619 14.0856 66.9839 14.2296C67.9029 14.5421 68.4106 15.2658 68.174 16.1848C67.533 18.6984 66.846 21.205 66.0327 23.668C65.6237 24.9087 64.2429 25.1453 63.2021 24.3228C62.9985 24.1488 62.8073 23.9607 62.63 23.7599L49.0123 9.17264C48.856 9.00492 48.6952 8.84179 48.5527 8.66258C47.5096 7.36675 47.8635 5.96753 49.4718 5.53558C56.2557 3.69753 63.0489 1.88474 69.8512 0.0972336C71.5537 -0.348495 72.6198 0.786504 72.181 2.51428C71.7421 4.24205 71.2114 5.96063 70.6944 7.77342C71.4871 8.08819 72.2223 8.37998 72.9576 8.66717C92.2572 16.1756 105.091 35.5878 104.379 56.2705C104.296 58.6715 103.998 61.0679 103.708 63.455C103.513 65.0633 102.762 65.6975 101.544 65.5229C100.326 65.3482 99.8782 64.4361 100.165 62.7497C101.581 54.2946 100.786 46.0349 97.5806 38.099C92.2571 24.911 82.7843 15.9757 69.3848 11.1991C68.8724 11.0491 68.3736 10.8562 67.8937 10.6224C66.9241 10.0779 66.4715 9.26684 66.8184 8.12724C66.9953 7.54366 67.1631 6.95318 67.3262 6.36501C67.4893 5.77683 67.6203 5.20703 67.85 4.35923Z" fill="#81AF02"/>
<path d="M41.7706 55.1654C41.8028 47.8293 47.3652 42.1773 54.4073 42.0279C61.1874 41.8809 66.998 47.3124 67.3196 54.1637C67.3438 54.9026 67.0989 55.6252 66.6303 56.1971C66.311 56.544 65.408 56.567 64.8451 56.4268C64.0065 56.2131 63.8158 55.4228 63.763 54.6002C63.5332 50.9379 61.7871 48.2268 58.5107 46.5794C55.2344 44.9321 51.2228 45.5455 48.452 47.9993C47.1 49.201 46.1331 50.7754 45.673 52.5248C45.2128 54.2741 45.2797 56.1204 45.8654 57.8319C46.4511 59.5433 47.5295 61.0435 48.965 62.1441C50.4005 63.2447 52.1292 63.8966 53.934 64.018C54.2012 64.0209 54.4681 64.0378 54.7335 64.0685C55.7422 64.2409 56.4085 65.0381 56.3418 65.9732C56.2752 66.9566 55.5974 67.6183 54.5038 67.6045C49.3733 67.5402 45.6237 65.1461 43.1836 60.6934C42.231 59.0086 41.7433 57.1008 41.7706 55.1654Z" fill="#81AF02"/>
<path d="M61.8741 63.9445C61.645 63.9475 61.4176 63.905 61.205 63.8194C60.9925 63.7339 60.799 63.6069 60.6359 63.4459C60.4728 63.285 60.3433 63.0932 60.255 62.8818C60.1666 62.6704 60.1211 62.4435 60.1211 62.2144C60.121 61.7313 60.3112 61.2675 60.6505 60.9236C60.9898 60.5796 61.4508 60.383 61.9339 60.3763C62.3945 60.4027 62.829 60.5992 63.153 60.9278C63.4769 61.2564 63.6672 61.6937 63.6869 62.1547C63.6972 62.3944 63.6573 62.6337 63.5695 62.857C63.4817 63.0804 63.3481 63.2829 63.1774 63.4515C63.0066 63.6201 62.8024 63.7511 62.578 63.836C62.3535 63.9209 62.1137 63.9578 61.8741 63.9445Z" fill="#81AF02"/>
</svg>
